<?xml version="1.0" encoding="UTF-8" standalone="no"?>
<svg
   width="512"
   height="512"
   viewBox="0 0 512 512"
   version="1.1"
   id="svg4"
   sodipodi:docname="icon.svg"
   inkscape:version="1.4.2 (f4327f4, 2025-05-13)"
   xmlns:inkscape="http://www.inkscape.org/namespaces/inkscape"
   xmlns:sodipodi="http://sodipodi.sourceforge.net/DTD/sodipodi-0.dtd"
   xmlns="http://www.w3.org/2000/svg"
   xmlns:svg="http://www.w3.org/2000/svg">
  <defs
     id="defs4" />
  <sodipodi:namedview
     id="namedview4"
     pagecolor="#ffffff"
     bordercolor="#666666"
     borderopacity="1.0"
     inkscape:showpageshadow="2"
     inkscape:pageopacity="0.0"
     inkscape:pagecheckerboard="0"
     inkscape:deskcolor="#d1d1d1"
     inkscape:zoom="1.5114407"
     inkscape:cx="143.57162"
     inkscape:cy="258.36276"
     inkscape:window-width="1920"
     inkscape:window-height="1057"
     inkscape:window-x="-8"
     inkscape:window-y="-8"
     inkscape:window-maximized="1"
     inkscape:current-layer="svg4" />
  <!-- Clock face -->
  <!-- Clock hands -->
  <!-- Center cap -->
  <g
     transform="matrix(2.4380116,0,0,2.4380116,254,256)"
     id="g2"
     style="stroke-width:6.15255;stroke-dasharray:none">
    <g
       id="hourHand"
       class="hand"
       style="stroke-width:6.15255;stroke-dasharray:none">
      <line
         x1="1.1984065"
         y1="0.75969553"
         x2="34.623363"
         y2="40.594006"
         style="stroke:#808080;stroke-width:6.15255;stroke-dasharray:none;stroke-opacity:1"
         id="line2" />
    </g>
  </g>
  <g
     transform="matrix(2.4380116,0,0,2.4380116,256,256)"
     id="g3"
     style="stroke-width:4.51187353;stroke-dasharray:none">
    <g
       id="minuteHand"
       class="hand"
       style="stroke-width:4.51187353;stroke-dasharray:none">
      <line
         x1="0.69350743"
         y1="-0.12062368"
         x2="67.693504"
         y2="-0.12062368"
         style="stroke:#808080;stroke-width:4.51187353;stroke-opacity:1;stroke-dasharray:none"
         id="line3" />
    </g>
  </g>
  <g
     transform="matrix(2.4380116,0,0,2.4380116,256,256)"
     id="g4"
     style="stroke-width:3.28136257;fill:#808080;fill-opacity:1;stroke-dasharray:none">
    <g
       id="secondHand"
       class="hand"
       style="stroke-width:3.28136257;fill:#808080;fill-opacity:1;stroke-dasharray:none">
      <line
         x1="0"
         y1="0"
         x2="0"
         y2="-93"
         style="stroke:#808080;stroke-width:3.28136257;fill:#808080;fill-opacity:1;stroke-opacity:1;stroke-dasharray:none"
         id="line4" />
    </g>
  </g>
  <g
     id="g5">
    <path
       id="circle1"
       style="fill:#808080;stroke:#808080;stroke-width:3;stroke-opacity:1;fill-opacity:1"
       d="M 256 17.074219 A 238.92514 238.92514 0 0 0 17.074219 256 A 238.92514 238.92514 0 0 0 256 494.92578 A 238.92514 238.92514 0 0 0 494.92578 256 A 238.92514 238.92514 0 0 0 256 17.074219 z M 256 85.339844 A 170.66081 170.66081 0 0 1 426.66016 256 A 170.66081 170.66081 0 0 1 256 426.66016 A 170.66081 170.66081 0 0 1 85.339844 256 A 170.66081 170.66081 0 0 1 256 85.339844 z " />
    <circle
       cx="256"
       cy="256"
       r="9.7520466"
       style="fill:#808080;stroke:#808080;stroke-width:2;fill-opacity:1;stroke-opacity:1"
       id="circle4" />
  </g>
</svg>
